<svg width="21" height="21" viewBox="0 0 21 21" fill="none" xmlns="http://www.w3.org/2000/svg">
<path d="M10.5 1.4C5.47421 1.4 1.4 5.47421 1.4 10.5C1.4 15.5258 5.47421 19.6 10.5 19.6C15.5258 19.6 19.6 15.5258 19.6 10.5C19.6 8.35363 18.8569 6.38081 17.6139 4.82479L11.0906 15.0758C10.9672 15.2697 10.7565 15.3907 10.5269 15.3995C10.2972 15.4083 10.0779 15.3038 9.94 15.12L5.74 9.52C5.50804 9.21072 5.57072 8.77196 5.88 8.54C6.18928 8.30804 6.62804 8.37072 6.86 8.68L10.4528 13.4704L16.4428 4.05752C16.506 3.95818 16.5377 3.91222 16.5377 3.91222L17.5 2.5C19.7514 4.42581 21 7.30504 21 10.5C21 16.299 16.299 21 10.5 21C4.70101 21 0 16.299 0 10.5C0 4.70101 4.70101 0 10.5 0C12.6112 0 14.5769 0.623088 16.2232 1.6954C16.397 1.80865 16.3009 1.7157 16.4674 1.83877L15.5725 3.09015C15.3944 2.94401 15.4802 3.01697 15.2963 2.88682C13.9314 1.92065 12.3941 1.4 10.5 1.4Z" fill="#FF5656"/>
</svg>
